<svg fill="none" xmlns="http://www.w3.org/2000/svg" viewBox="0 0 1280 1280"><g clip-path="url(#a)"><path d="M1258 960c-21-48-62-89-111-108-51-21-109-14-163-20-46-6-80-27-108-64-26-36-50-75-94-91-34-13-73-10-108 4-63 25-110 78-150 130-37 48-67 101-135 103-67 1-132-37-200-27-90 14-165 89-181 178-15 84 22 165 86 213h1093c80-85 122-203 71-318ZM597 537c19 19 27 52 17 83-10 29-33 53-60 69-21 13-50 20-71 6-16-9-24-29-25-48 0-18 6-37 14-54 11-24 26-47 48-62 30-20 58-13 77 6ZM339 206H182v-70h157v70Zm-154-3h151v-63H185v63Z" fill="#FBEAD2"/><path d="M237 273H80v-70h157v70Zm-153-3h150v-63H84v63Z" fill="#FBEAD2"/><path d="M1230 348c-10-34-28-65-54-93-25-28-60-52-104-70-44-19-101-28-169-28-54 0-109 7-166 22-56 15-105 36-147 63l54 148-29 24 42 12c42-22 80-37 114-47s70-15 108-15c39 0 68 9 87 28 20 18 30 41 30 67 0 31-10 59-30 84-21 24-43 49-68 74l-49 54a387 387 0 0 0-72 128c-7 25-11 52-11 83a837 837 0 0 0 1 42h-40l44 30h211c-2-7-2-15-2-23v-20c0-18 4-37 11-55a380 380 0 0 1 66-98 2880 2880 0 0 1 92-97 435 435 0 0 0 83-133c9-25 13-53 13-84 0-30-5-62-15-96Z" fill="#FFB752"/><path d="M835 354c-38 0-74 5-108 14-33 10-71 25-112 46l-66-179c41-26 89-46 145-61 56-14 111-21 164-21 68 0 123 9 167 27s78 41 103 68c26 27 43 57 53 90s15 64 15 93c0 30-4 57-13 82a334 334 0 0 1-82 128 2551 2551 0 0 1-91 94 369 369 0 0 0-65 95c-7 18-11 35-11 53v19l2 22H727l-4-35v-34a267 267 0 0 1 40-146c12-21 26-40 42-58 15-18 32-35 49-52 24-25 46-48 66-72s30-51 30-82c0-25-10-46-29-64-20-18-48-27-86-27Z" fill="#FFD498"/><path d="M996 1158c0 38-12 68-37 88a126 126 0 0 1-167 0c-25-20-37-50-37-88s12-67 37-88c38-32 94-39 138-16 40 19 66 60 66 104Z" fill="#FFB752"/><path d="M955 1158c0 38-13 68-37 88a126 126 0 0 1-167 0c-25-20-37-50-37-88s12-67 37-88a126 126 0 0 1 167 0c24 21 37 50 37 88Z" fill="#FFD498"/><g opacity=".3" fill="#2079CC"><path d="M330 619a23 23 0 1 0-44-8 23 23 0 0 0 44 8ZM341 662c2-7-3-14-10-15-7-2-14 3-15 10s3 14 10 15 14-3 15-10ZM269 412a89 89 0 1 0-33 176 89 89 0 0 0 33-176Zm-51 100a11 11 0 1 1 0-23 11 11 0 0 1 0 23Zm34 0a11 11 0 1 1 0-23 11 11 0 0 1 0 23Zm34 0a11 11 0 1 1 0-23 11 11 0 0 1 0 23Z"/></g><path d="m188 1233 8 32c3 8 11 14 20 13 27-1 84-8 117-32l-10-47c-45-2-87 0-123 13-9 3-14 12-12 21Z" fill="#182A3B"/><path d="M240 1258h-1l-11-41 1-1 1 1 11 40a1 1 0 0 1-1 1ZM265 1253l-1-1-12-40 1-1h1l12 41-1 1Z" fill="#FFF4E3"/><path d="m293 1059-105 31 78 106 111 9 154-65-59-88-179 7Z" fill="#FFB751"/><path d="M421 1073c230-68 267 135-91 172-13-14-28-39-33-60l189-87-65-25Z" fill="#FFB751"/><path d="M431 1219c-11-4-21-11-21-11l-37 12 9 40 38 8c12-22 12-39 11-49Z" fill="#F9B384"/><path d="m297 1187-1-3c39-23 140-78 226-94l1 3c-86 16-186 71-226 94Z" fill="#E39322"/><path d="M293 1059c-214-41-269 164 89 201 12-14 22-31 28-52-55-36-116-71-183-105l66-44Z" fill="#FFB751"/><path d="m409 1210-32-21c-56-36-119-77-174-101l2-3c54 24 118 65 174 101l32 21-2 3ZM136 1160l-3-1c8-15 21-25 39-29v3c-16 4-28 13-36 27ZM582 1148c-8-14-20-23-37-28l1-3c18 5 30 15 38 29l-2 2Z" fill="#E39322"/><path d="m362 1258-3-2c18-18 28-38 33-59l3 1c-5 22-16 41-33 60Z" fill="#E39322"/><path d="M538 1207c-28-17-81 12-94 13-4 1-8 0-13-1 1 10 1 27-11 49l7 1s45 17 92 7c44-9 40-56 19-69Z" fill="#182A3B"/><path d="m500 1262-1-1c4-11 5-31-4-45a1 1 0 1 1 1-1c10 14 9 35 5 46l-1 1ZM479 1266l-1-1c3-11 5-31-5-45a1 1 0 1 1 2-1c10 14 8 36 5 46l-1 1Z" fill="#FFF4E3"/><g opacity=".8"><path d="M255 794s54-46 52-54c-2-7-17 2-17 2s21-25 20-28c-2-6-16 5-16 5s10-15 5-17-15 7-15 7 6-8 3-11c-3-2-15 7-15 7s4-10-5-6c-10 4-75 64-75 64l63 31Z" fill="#F9B384"/><path d="m277 740-1-1c-9-8-13-10-23-13a1 1 0 0 1 0-2c11 3 15 5 25 14a1 1 0 0 1-1 2ZM261 764l-1-1c1-7 3-12 7-14 3-2 8-2 13 0v2h-1c-5-2-8-2-11 0-3 1-5 6-6 13l-1 1v-1ZM258 719v-2l13-13h2v2l-14 12-1 1ZM271 723h-1v-2l13-13h1l1 1-13 14h-1ZM284 731l-1-1v-1l10-11h1v1l-10 11v1Z" fill="#E28B6D"/></g><path d="m458 1100-196 7-22-179 91-85 43-2c132 60 111 135 84 259Z" fill="#2079CC"/><path d="M374 841s151 13 199 116c47 102-145 138-145 138l-54-254ZM200 863l63-76-59-36c-24 17-71 56-111 99-9 10-16 21-20 33-3 11-3 21-1 32 4 26 25 47 53 50 24 3 115-4 189-26l21-84c-11-6-94-7-135 8Z" fill="#2079CC"/><g opacity=".8" fill="#FFF4E3"><path d="M500 882h1l-2-2c-11 3-22 6-34 7-7 1-29 2-36-13-3-7-1-16 3-22h-2c-3 6-6 15-2 23 7 16 30 14 37 14l35-7ZM571 999c-7-3-15-6-23-5-13 1-25 15-26 31 0 10 4 21 11 31l2-1c-8-9-12-20-11-30 0-15 12-28 25-29 7-1 14 2 21 5l8 3 1-2-8-3ZM188 947c-9-8-24-10-40-6-15 4-27 12-35 21l1 1c9-9 20-16 34-20 16-4 30-2 39 5 4 4 8 9 10 14l1-1c-2-5-5-10-10-14ZM103 839c17-4 35-10 51-19 6-4 12-8 17-15s7-15 5-22l-5-7-1 1 4 7c2 6 1 14-4 20-5 7-11 11-17 14-15 9-32 15-48 19l-2 2Z"/></g><path d="m200 862-35 37 2 2 34-37-1-2ZM441 1022l-1-3c25-7 50-16 71-44l2 2c-22 28-47 37-72 45Z" fill="#182A3B"/><path d="M388 801v2l-1 44v4a27 27 0 0 1-54 0v-53l55 3Z" fill="#F9B384"/><path d="m388 803-1 44c-24-10-34-36-34-36l34-8h1Z" fill="#192A3B"/><path d="M397 728c9 10 34 69 8 89-28 22-72-15-72-15l-6-68 38-10 32 4Z" fill="#F9B384"/><path d="M308 724s-84 44-16 170c9 17 29 24 45 16 18-9 25-31 15-48-11-20-22-45-17-64l-27-74Z" fill="#192A3B"/><path d="M332 761a23 23 0 1 0-32-32 23 23 0 0 0 32 32Z" fill="#E29321"/><path d="M344 772c-3-14-4-24 10-31 0 0 51 9 60-10 10-19-5-49-36-28-78-15-89 58-65 83l24-4c4 0 8-5 7-10ZM383 776a3 3 0 1 0 0-7 3 3 0 0 0 0 7ZM406 765a3 3 0 1 0 0-7 3 3 0 0 0 0 7ZM403 783v-2l2-5-5-2c-3 0-4-5-4-6a1 1 0 1 1 2 0l2 4c1 0 5 1 6 4 1 1 0 4-2 6l-1 1ZM403 795c-6-4-13 0-13 0a1 1 0 0 1-1-2s8-4 15 1a1 1 0 0 1-1 1Z" fill="#192A3B"/><path d="M381 758c2 3-1 4-5 6s-8 3-9 1c-1-1 2-4 6-7 4-2 7-3 8 0ZM396 751c0 4 3 2 6 1 4-1 7-2 6-4 0-1-3-2-7-1-3 1-6 2-5 4Z" fill="#192A3B"/><path opacity=".4" d="M374 795a10 10 0 1 0-13-14 10 10 0 0 0 13 14Z" fill="#EB5D60"/><path d="M342 797c4-5 3-14-4-19-7-6-16-5-20 1-5 6-3 15 4 20 6 5 15 4 20-2Z" fill="#F9B384"/><path d="m336 793-1-1c0-3-2-5-4-7l-6-1h-1v-1c3-1 6-1 8 1 3 1 5 5 5 8l-1 1Z" fill="#192A3B"/><path d="M456 937H244c-8 0-14 7-14 15v152c0 8 6 15 14 15h212c8 0 14-7 14-15V952c0-8-6-15-14-15Z" fill="#FFD498"/><path d="m361 1019 2 1v16l-2 2h-22l-2-2v-16l2-1h22Zm0-5h-22c-3 0-6 3-6 6v16c0 3 3 6 6 6h22c3 0 6-3 6-6v-16c0-3-3-6-6-6Z" fill="#192A3B"/><path d="M1280 1276H0v4h1280v-4Z" fill="#102048"/></g><defs><clipPath id="a"><path fill="#fff" d="M0 0h1280v1280H0z"/></clipPath></defs></svg>